<svg width="169" height="67" viewBox="0 0 169 67" fill="none" xmlns="http://www.w3.org/2000/svg">
<g filter="url(#filter0_d_1055_3261)">
<rect x="8" y="6" width="153" height="51" rx="8" fill="#1985D2" shape-rendering="crispEdges"/>
<path d="M43.5632 23.6293C42.3952 23.6293 40.5872 22.3013 38.6832 22.3493C36.1712 22.3813 33.8672 23.8053 32.5712 26.0613C29.9632 30.5893 31.8992 37.2773 34.4432 40.9573C35.6912 42.7493 37.1632 44.7653 39.1152 44.7013C40.9872 44.6213 41.6912 43.4853 43.9632 43.4853C46.2192 43.4853 46.8592 44.7013 48.8432 44.6533C50.8592 44.6213 52.1392 42.8293 53.3712 41.0213C54.7952 38.9413 55.3872 36.9253 55.4192 36.8133C55.3712 36.7973 51.4992 35.3093 51.4512 30.8293C51.4192 27.0853 54.5072 25.2933 54.6512 25.2133C52.8912 22.6373 50.1872 22.3493 49.2432 22.2853C46.7792 22.0933 44.7152 23.6293 43.5632 23.6293ZM47.7232 19.8533C48.7632 18.6053 49.4512 16.8613 49.2592 15.1333C47.7712 15.1973 45.9792 16.1253 44.9072 17.3733C43.9472 18.4773 43.1152 20.2533 43.3392 21.9493C44.9872 22.0773 46.6832 21.1013 47.7232 19.8533Z" fill="white"/>
<path d="M69.056 26V17.54H70.052V26H69.056ZM72.0535 26V21.368C72.0535 21.144 72.0415 20.916 72.0175 20.684C72.0015 20.444 71.9815 20.208 71.9575 19.976H72.8935L73.0135 21.296H72.8695C73.0455 20.832 73.3255 20.48 73.7095 20.24C74.1015 19.992 74.5535 19.868 75.0655 19.868C75.7775 19.868 76.3135 20.06 76.6735 20.444C77.0415 20.82 77.2255 21.416 77.2255 22.232V26H76.2535V22.292C76.2535 21.724 76.1375 21.312 75.9055 21.056C75.6815 20.792 75.3295 20.66 74.8495 20.66C74.2895 20.66 73.8455 20.832 73.5175 21.176C73.1895 21.52 73.0255 21.98 73.0255 22.556V26H72.0535ZM81.0887 26.108C80.6087 26.108 80.1607 26.044 79.7447 25.916C79.3287 25.78 78.9847 25.592 78.7127 25.352L79.0487 24.668C79.3447 24.9 79.6647 25.072 80.0087 25.184C80.3607 25.296 80.7247 25.352 81.1007 25.352C81.5807 25.352 81.9407 25.268 82.1807 25.1C82.4287 24.924 82.5527 24.684 82.5527 24.38C82.5527 24.148 82.4727 23.964 82.3127 23.828C82.1607 23.684 81.9087 23.572 81.5567 23.492L80.4407 23.264C79.9287 23.152 79.5447 22.964 79.2887 22.7C79.0327 22.428 78.9047 22.084 78.9047 21.668C78.9047 21.316 78.9967 21.008 79.1807 20.744C79.3647 20.472 79.6327 20.26 79.9847 20.108C80.3367 19.948 80.7487 19.868 81.2207 19.868C81.6607 19.868 82.0647 19.936 82.4327 20.072C82.8087 20.2 83.1207 20.388 83.3687 20.636L83.0207 21.308C82.7807 21.076 82.5047 20.904 82.1927 20.792C81.8887 20.672 81.5727 20.612 81.2447 20.612C80.7727 20.612 80.4167 20.708 80.1767 20.9C79.9447 21.084 79.8287 21.328 79.8287 21.632C79.8287 21.864 79.9007 22.056 80.0447 22.208C80.1967 22.352 80.4287 22.46 80.7407 22.532L81.8567 22.76C82.4007 22.88 82.8047 23.068 83.0687 23.324C83.3407 23.572 83.4767 23.908 83.4767 24.332C83.4767 24.692 83.3767 25.008 83.1767 25.28C82.9767 25.544 82.6967 25.748 82.3367 25.892C81.9847 26.036 81.5687 26.108 81.0887 26.108ZM87.1152 26.108C86.5233 26.108 86.0713 25.94 85.7593 25.604C85.4473 25.26 85.2913 24.744 85.2913 24.056V20.732H84.1153V19.976H85.2913V18.332L86.2633 18.056V19.976H87.9913V20.732H86.2633V23.948C86.2633 24.428 86.3433 24.772 86.5033 24.98C86.6713 25.18 86.9193 25.28 87.2473 25.28C87.3993 25.28 87.5353 25.268 87.6553 25.244C87.7753 25.212 87.8833 25.176 87.9793 25.136V25.952C87.8673 26 87.7313 26.036 87.5713 26.06C87.4193 26.092 87.2673 26.108 87.1152 26.108ZM91.4666 26.108C90.9306 26.108 90.4626 25.984 90.0626 25.736C89.6626 25.48 89.3506 25.12 89.1266 24.656C88.9106 24.192 88.8026 23.636 88.8026 22.988C88.8026 22.332 88.9106 21.772 89.1266 21.308C89.3506 20.844 89.6626 20.488 90.0626 20.24C90.4626 19.992 90.9306 19.868 91.4666 19.868C92.0106 19.868 92.4786 20.008 92.8706 20.288C93.2706 20.56 93.5346 20.932 93.6626 21.404H93.5186L93.6506 19.976H94.5866C94.5626 20.208 94.5386 20.444 94.5146 20.684C94.4986 20.916 94.4906 21.144 94.4906 21.368V26H93.5186V24.584H93.6506C93.5226 25.056 93.2586 25.428 92.8586 25.7C92.4586 25.972 91.9946 26.108 91.4666 26.108ZM91.6586 25.316C92.2346 25.316 92.6906 25.12 93.0266 24.728C93.3626 24.328 93.5306 23.748 93.5306 22.988C93.5306 22.22 93.3626 21.64 93.0266 21.248C92.6906 20.848 92.2346 20.648 91.6586 20.648C91.0906 20.648 90.6346 20.848 90.2906 21.248C89.9546 21.64 89.7866 22.22 89.7866 22.988C89.7866 23.748 89.9546 24.328 90.2906 24.728C90.6346 25.12 91.0906 25.316 91.6586 25.316ZM96.3699 26V17.168H97.3419V26H96.3699ZM99.2293 26V17.168H100.201V26H99.2293ZM105.53 26V20.732H104.354V19.976H105.794L105.53 20.228V19.22C105.53 18.54 105.702 18.02 106.046 17.66C106.39 17.3 106.882 17.12 107.522 17.12C107.682 17.12 107.846 17.136 108.014 17.168C108.19 17.192 108.334 17.228 108.446 17.276V18.08C108.35 18.04 108.23 18.008 108.086 17.984C107.95 17.952 107.81 17.936 107.666 17.936C107.418 17.936 107.206 17.988 107.03 18.092C106.854 18.188 106.722 18.336 106.634 18.536C106.546 18.736 106.502 18.992 106.502 19.304V20.18L106.346 19.976H108.182V20.732H106.502V26H105.53ZM109.248 26V21.428C109.248 21.188 109.24 20.944 109.224 20.696C109.216 20.448 109.2 20.208 109.176 19.976H110.112L110.232 21.44L110.064 21.452C110.144 21.092 110.284 20.796 110.484 20.564C110.684 20.332 110.92 20.16 111.192 20.048C111.464 19.928 111.748 19.868 112.044 19.868C112.164 19.868 112.268 19.872 112.356 19.88C112.452 19.888 112.54 19.908 112.62 19.94L112.608 20.804C112.488 20.764 112.376 20.74 112.272 20.732C112.176 20.716 112.064 20.708 111.936 20.708C111.584 20.708 111.276 20.792 111.012 20.96C110.756 21.128 110.56 21.344 110.424 21.608C110.296 21.872 110.232 22.152 110.232 22.448V26H109.248ZM116.033 26.108C115.457 26.108 114.953 25.984 114.521 25.736C114.097 25.48 113.769 25.12 113.537 24.656C113.305 24.184 113.189 23.628 113.189 22.988C113.189 22.34 113.305 21.784 113.537 21.32C113.769 20.856 114.097 20.5 114.521 20.252C114.953 19.996 115.457 19.868 116.033 19.868C116.617 19.868 117.121 19.996 117.545 20.252C117.977 20.5 118.309 20.856 118.541 21.32C118.781 21.784 118.901 22.34 118.901 22.988C118.901 23.628 118.781 24.184 118.541 24.656C118.309 25.12 117.977 25.48 117.545 25.736C117.121 25.984 116.617 26.108 116.033 26.108ZM116.033 25.316C116.609 25.316 117.065 25.12 117.401 24.728C117.737 24.328 117.905 23.748 117.905 22.988C117.905 22.22 117.733 21.64 117.389 21.248C117.053 20.848 116.601 20.648 116.033 20.648C115.465 20.648 115.013 20.848 114.677 21.248C114.341 21.64 114.173 22.22 114.173 22.988C114.173 23.748 114.341 24.328 114.677 24.728C115.013 25.12 115.465 25.316 116.033 25.316ZM120.417 26V21.368C120.417 21.144 120.405 20.916 120.381 20.684C120.365 20.444 120.345 20.208 120.321 19.976H121.257L121.377 21.296H121.233C121.393 20.84 121.645 20.488 121.989 20.24C122.341 19.992 122.765 19.868 123.261 19.868C123.765 19.868 124.173 19.988 124.485 20.228C124.805 20.468 125.021 20.84 125.133 21.344H124.953C125.105 20.888 125.373 20.528 125.757 20.264C126.141 20 126.589 19.868 127.101 19.868C127.765 19.868 128.265 20.06 128.601 20.444C128.937 20.82 129.105 21.416 129.105 22.232V26H128.133V22.292C128.133 21.724 128.033 21.312 127.833 21.056C127.633 20.792 127.313 20.66 126.873 20.66C126.369 20.66 125.969 20.836 125.673 21.188C125.385 21.532 125.241 21.996 125.241 22.58V26H124.269V22.292C124.269 21.724 124.169 21.312 123.969 21.056C123.769 20.792 123.449 20.66 123.009 20.66C122.505 20.66 122.109 20.836 121.821 21.188C121.533 21.532 121.389 21.996 121.389 22.58V26H120.417Z" fill="#FAFAFA"/>
<path d="M68.224 45L73.216 33.72H74.512L79.584 45H78.048L76.656 41.8L77.296 42.184H70.432L71.136 41.8L69.744 45H68.224ZM73.84 35.384L71.344 41.304L70.96 40.968H76.768L76.464 41.304L73.904 35.384H73.84ZM81.0285 48.456V38.856C81.0285 38.5467 81.0178 38.232 80.9965 37.912C80.9752 37.592 80.9432 37.272 80.9005 36.952H82.3085L82.4845 38.808H82.3085C82.4685 38.1893 82.8098 37.704 83.3325 37.352C83.8552 36.9893 84.4792 36.808 85.2045 36.808C85.9192 36.808 86.5432 36.9733 87.0765 37.304C87.6098 37.6347 88.0205 38.1147 88.3085 38.744C88.6072 39.3627 88.7565 40.104 88.7565 40.968C88.7565 41.832 88.6072 42.5787 88.3085 43.208C88.0205 43.8373 87.6098 44.3173 87.0765 44.648C86.5432 44.9787 85.9192 45.144 85.2045 45.144C84.4898 45.144 83.8712 44.968 83.3485 44.616C82.8365 44.2533 82.4898 43.768 82.3085 43.16H82.4845V48.456H81.0285ZM84.8685 43.992C85.6045 43.992 86.1912 43.736 86.6285 43.224C87.0658 42.712 87.2845 41.96 87.2845 40.968C87.2845 39.976 87.0658 39.2293 86.6285 38.728C86.1912 38.2267 85.6045 37.976 84.8685 37.976C84.1325 37.976 83.5458 38.2267 83.1085 38.728C82.6818 39.2293 82.4685 39.976 82.4685 40.968C82.4685 41.96 82.6818 42.712 83.1085 43.224C83.5458 43.736 84.1325 43.992 84.8685 43.992ZM90.716 48.456V38.856C90.716 38.5467 90.7053 38.232 90.684 37.912C90.6627 37.592 90.6307 37.272 90.588 36.952H91.996L92.172 38.808H91.996C92.156 38.1893 92.4973 37.704 93.02 37.352C93.5427 36.9893 94.1667 36.808 94.892 36.808C95.6067 36.808 96.2307 36.9733 96.764 37.304C97.2973 37.6347 97.708 38.1147 97.996 38.744C98.2947 39.3627 98.444 40.104 98.444 40.968C98.444 41.832 98.2947 42.5787 97.996 43.208C97.708 43.8373 97.2973 44.3173 96.764 44.648C96.2307 44.9787 95.6067 45.144 94.892 45.144C94.1773 45.144 93.5587 44.968 93.036 44.616C92.524 44.2533 92.1773 43.768 91.996 43.16H92.172V48.456H90.716ZM94.556 43.992C95.292 43.992 95.8787 43.736 96.316 43.224C96.7533 42.712 96.972 41.96 96.972 40.968C96.972 39.976 96.7533 39.2293 96.316 38.728C95.8787 38.2267 95.292 37.976 94.556 37.976C93.82 37.976 93.2333 38.2267 92.796 38.728C92.3693 39.2293 92.156 39.976 92.156 40.968C92.156 41.96 92.3693 42.712 92.796 43.224C93.2333 43.736 93.82 43.992 94.556 43.992ZM107.342 45.144C106.692 45.144 106.084 45.0587 105.518 44.888C104.964 44.7173 104.505 44.472 104.142 44.152L104.606 43.144C105.001 43.4427 105.433 43.672 105.902 43.832C106.382 43.9813 106.873 44.056 107.374 44.056C107.982 44.056 108.441 43.944 108.75 43.72C109.07 43.496 109.23 43.1973 109.23 42.824C109.23 42.5253 109.129 42.2853 108.926 42.104C108.724 41.9227 108.404 41.7893 107.966 41.704L106.446 41.4C105.764 41.24 105.246 40.984 104.894 40.632C104.553 40.2693 104.382 39.8053 104.382 39.24C104.382 38.7707 104.51 38.3547 104.766 37.992C105.022 37.6187 105.385 37.3307 105.854 37.128C106.334 36.9147 106.894 36.808 107.534 36.808C108.121 36.808 108.665 36.8933 109.166 37.064C109.678 37.2347 110.1 37.4853 110.43 37.816L109.95 38.792C109.62 38.504 109.246 38.2853 108.83 38.136C108.425 37.976 108.009 37.896 107.582 37.896C106.964 37.896 106.505 38.0187 106.206 38.264C105.908 38.4987 105.758 38.808 105.758 39.192C105.758 39.48 105.849 39.72 106.03 39.912C106.212 40.0933 106.505 40.232 106.91 40.328L108.43 40.632C109.145 40.7813 109.684 41.0267 110.046 41.368C110.409 41.7093 110.59 42.1627 110.59 42.728C110.59 43.2293 110.452 43.6613 110.174 44.024C109.908 44.3867 109.529 44.664 109.038 44.856C108.558 45.048 107.993 45.144 107.342 45.144ZM115.505 45.144C114.663 45.144 114.023 44.9147 113.585 44.456C113.159 43.9867 112.945 43.2827 112.945 42.344V38.072H111.377V36.952H112.945V34.792L114.401 34.392V36.952H116.673V38.072H114.401V42.216C114.401 42.8347 114.508 43.2773 114.721 43.544C114.945 43.8 115.265 43.928 115.681 43.928C115.895 43.928 116.076 43.912 116.225 43.88C116.385 43.8373 116.529 43.7893 116.657 43.736V44.936C116.497 45 116.311 45.048 116.097 45.08C115.895 45.1227 115.697 45.144 115.505 45.144ZM121.514 45.144C120.725 45.144 120.042 44.9787 119.466 44.648C118.89 44.3067 118.442 43.8267 118.122 43.208C117.802 42.5787 117.642 41.832 117.642 40.968C117.642 40.1147 117.802 39.3787 118.122 38.76C118.442 38.1307 118.89 37.6507 119.466 37.32C120.042 36.9787 120.725 36.808 121.514 36.808C122.304 36.808 122.986 36.9787 123.562 37.32C124.149 37.6507 124.597 38.1307 124.906 38.76C125.226 39.3787 125.386 40.1147 125.386 40.968C125.386 41.832 125.226 42.5787 124.906 43.208C124.597 43.8267 124.149 44.3067 123.562 44.648C122.986 44.9787 122.304 45.144 121.514 45.144ZM121.514 43.992C122.24 43.992 122.821 43.736 123.258 43.224C123.696 42.712 123.914 41.96 123.914 40.968C123.914 39.976 123.696 39.2293 123.258 38.728C122.821 38.2267 122.24 37.976 121.514 37.976C120.778 37.976 120.192 38.2267 119.754 38.728C119.328 39.2293 119.114 39.976 119.114 40.968C119.114 41.96 119.328 42.712 119.754 43.224C120.192 43.736 120.778 43.992 121.514 43.992ZM127.325 45V38.92C127.325 38.6 127.314 38.2747 127.293 37.944C127.282 37.6027 127.256 37.272 127.213 36.952H128.621L128.797 38.968L128.557 38.984C128.664 38.4933 128.845 38.088 129.101 37.768C129.368 37.4373 129.682 37.1973 130.045 37.048C130.418 36.888 130.802 36.808 131.197 36.808C131.368 36.808 131.512 36.8133 131.629 36.824C131.746 36.8347 131.864 36.8613 131.981 36.904L131.949 38.2C131.789 38.136 131.64 38.0987 131.501 38.088C131.373 38.0667 131.213 38.056 131.021 38.056C130.552 38.056 130.146 38.1627 129.805 38.376C129.474 38.5893 129.218 38.872 129.037 39.224C128.866 39.576 128.781 39.9547 128.781 40.36V45H127.325ZM136.818 45.144C135.538 45.144 134.524 44.776 133.778 44.04C133.042 43.304 132.674 42.2907 132.674 41C132.674 40.1467 132.834 39.4107 133.154 38.792C133.484 38.1627 133.938 37.6773 134.514 37.336C135.09 36.984 135.762 36.808 136.53 36.808C137.266 36.808 137.89 36.968 138.402 37.288C138.914 37.5973 139.303 38.04 139.57 38.616C139.836 39.192 139.97 39.8747 139.97 40.664V41.144H133.81V40.28H138.978L138.706 40.488C138.706 39.656 138.519 39.0107 138.146 38.552C137.783 38.0933 137.244 37.864 136.53 37.864C135.751 37.864 135.148 38.136 134.722 38.68C134.295 39.2133 134.082 39.944 134.082 40.872V41.016C134.082 41.9973 134.322 42.7387 134.802 43.24C135.292 43.7413 135.97 43.992 136.834 43.992C137.314 43.992 137.762 43.9227 138.178 43.784C138.594 43.6453 138.994 43.416 139.378 43.096L139.858 44.104C139.495 44.4347 139.042 44.6907 138.498 44.872C137.964 45.0533 137.404 45.144 136.818 45.144Z" fill="white"/>
</g>
<defs>
<filter id="filter0_d_1055_3261" x="0" y="0" width="169" height="67" filterUnits="userSpaceOnUse" color-interpolation-filters="sRGB">
<feFlood flood-opacity="0" result="BackgroundImageFix"/>
<feColorMatrix in="SourceAlpha" type="matrix" values="0 0 0 0 0 0 0 0 0 0 0 0 0 0 0 0 0 0 127 0" result="hardAlpha"/>
<feOffset dy="2"/>
<feGaussianBlur stdDeviation="4"/>
<feComposite in2="hardAlpha" operator="out"/>
<feColorMatrix type="matrix" values="0 0 0 0 0 0 0 0 0 0 0 0 0 0 0 0 0 0 0.12 0"/>
<feBlend mode="normal" in2="BackgroundImageFix" result="effect1_dropShadow_1055_3261"/>
<feBlend mode="normal" in="SourceGraphic" in2="effect1_dropShadow_1055_3261" result="shape"/>
</filter>
</defs>
</svg>
