<svg width="18" height="14" viewBox="0 0 18 14" fill="none" xmlns="http://www.w3.org/2000/svg">
<path d="M0.724635 1.5685L8.12047 8.96516C8.33926 9.18411 8.63151 9.31409 8.94063 9.32995C9.24975 9.3458 9.55376 9.2464 9.7938 9.051L9.8888 8.96516L17.2796 1.5735C17.3038 1.66516 17.3196 1.7585 17.328 1.85433L17.3346 2.00016V12.0002C17.3348 12.4206 17.176 12.8256 16.8901 13.134C16.6041 13.4423 16.2123 13.6311 15.793 13.6627L15.668 13.6668H2.33464C1.91416 13.667 1.50916 13.5082 1.20085 13.2222C0.892528 12.9363 0.703672 12.5445 0.672136 12.1252L0.667969 12.0002V2.00016C0.667969 1.90016 0.676302 1.8035 0.692969 1.7085L0.724635 1.5685ZM15.668 0.333496C15.7688 0.333496 15.868 0.34183 15.9638 0.35933L16.1055 0.39183L9.00547 7.49183L1.90297 0.390163C1.99464 0.365163 2.08964 0.348496 2.1863 0.340163L2.33464 0.333496H15.668Z" fill="white"/>
</svg>
