<svg width="16" height="16" viewBox="0 0 16 16" fill="none" xmlns="http://www.w3.org/2000/svg">
<path d="M14.0265 10.7166L11.9098 10.475C11.6609 10.4457 11.4087 10.4733 11.172 10.5556C10.9353 10.6378 10.7203 10.7727 10.5432 10.95L9.00983 12.4833C6.64416 11.2802 4.72132 9.35731 3.51817 6.99163L5.05983 5.44997C5.41817 5.09163 5.59317 4.59164 5.53483 4.0833L5.29317 1.9833C5.24592 1.57678 5.05083 1.20183 4.74503 0.929841C4.43923 0.657851 4.04409 0.507816 3.63483 0.508302H2.19317C1.2515 0.508302 0.468165 1.29164 0.526499 2.2333C0.968165 9.34997 6.65983 15.0333 13.7682 15.475C14.7098 15.5333 15.4932 14.75 15.4932 13.8083V12.3666C15.5015 11.525 14.8682 10.8166 14.0265 10.7166Z" fill="white"/>
</svg>
