<svg width="170" height="67" viewBox="0 0 170 67" fill="none" xmlns="http://www.w3.org/2000/svg">
<g filter="url(#filter0_d_1055_3267)">
<rect x="8" y="6" width="154" height="51" rx="8" fill="#1985D2" shape-rendering="crispEdges"/>
<path d="M47.1093 24.2742L31.6086 15.4147C31.5126 15.3601 31.4039 15.3319 31.2935 15.333C31.1831 15.3342 31.0749 15.3646 30.9801 15.4212C30.8847 15.4754 30.8054 15.5541 30.7502 15.649C30.695 15.7439 30.666 15.8517 30.666 15.9615C30.666 15.9615 30.6722 16.7784 30.6784 18.1229L41.9697 29.4138L47.1093 24.2742Z" fill="url(#paint0_linear_1055_3267)"/>
<path d="M30.6777 18.123C30.6967 22.9737 30.7532 34.7485 30.7783 40.6109L41.9761 29.414L30.6777 18.123Z" fill="url(#paint1_linear_1055_3267)"/>
<path d="M55.981 29.3446L47.109 24.2739L41.9629 29.4147L47.7685 35.2203L55.9881 30.4324C56.083 30.3775 56.162 30.2988 56.2171 30.204C56.2722 30.1092 56.3015 30.0017 56.3022 29.892C56.3012 29.7806 56.271 29.6715 56.2147 29.5754C56.1583 29.4794 56.0778 29.3998 55.981 29.3446Z" fill="url(#paint2_linear_1055_3267)"/>
<path d="M30.7734 40.6103C30.7859 42.7028 30.7924 44.0411 30.7924 44.0411C30.7914 44.151 30.8201 44.2592 30.8754 44.3543C30.9306 44.4494 31.0104 44.5278 31.1065 44.5814C31.2018 44.637 31.3102 44.6662 31.4205 44.6662C31.5309 44.6662 31.6393 44.637 31.7346 44.5814L47.7757 35.2256L41.9704 29.4199L30.7734 40.6103Z" fill="url(#paint3_linear_1055_3267)"/>
<path d="M69.056 26V17.54H70.052V26H69.056ZM72.0535 26V21.368C72.0535 21.144 72.0415 20.916 72.0175 20.684C72.0015 20.444 71.9815 20.208 71.9575 19.976H72.8935L73.0135 21.296H72.8695C73.0455 20.832 73.3255 20.48 73.7095 20.24C74.1015 19.992 74.5535 19.868 75.0655 19.868C75.7775 19.868 76.3135 20.06 76.6735 20.444C77.0415 20.82 77.2255 21.416 77.2255 22.232V26H76.2535V22.292C76.2535 21.724 76.1375 21.312 75.9055 21.056C75.6815 20.792 75.3295 20.66 74.8495 20.66C74.2895 20.66 73.8455 20.832 73.5175 21.176C73.1895 21.52 73.0255 21.98 73.0255 22.556V26H72.0535ZM81.0887 26.108C80.6087 26.108 80.1607 26.044 79.7447 25.916C79.3287 25.78 78.9847 25.592 78.7127 25.352L79.0487 24.668C79.3447 24.9 79.6647 25.072 80.0087 25.184C80.3607 25.296 80.7247 25.352 81.1007 25.352C81.5807 25.352 81.9407 25.268 82.1807 25.1C82.4287 24.924 82.5527 24.684 82.5527 24.38C82.5527 24.148 82.4727 23.964 82.3127 23.828C82.1607 23.684 81.9087 23.572 81.5567 23.492L80.4407 23.264C79.9287 23.152 79.5447 22.964 79.2887 22.7C79.0327 22.428 78.9047 22.084 78.9047 21.668C78.9047 21.316 78.9967 21.008 79.1807 20.744C79.3647 20.472 79.6327 20.26 79.9847 20.108C80.3367 19.948 80.7487 19.868 81.2207 19.868C81.6607 19.868 82.0647 19.936 82.4327 20.072C82.8087 20.2 83.1207 20.388 83.3687 20.636L83.0207 21.308C82.7807 21.076 82.5047 20.904 82.1927 20.792C81.8887 20.672 81.5727 20.612 81.2447 20.612C80.7727 20.612 80.4167 20.708 80.1767 20.9C79.9447 21.084 79.8287 21.328 79.8287 21.632C79.8287 21.864 79.9007 22.056 80.0447 22.208C80.1967 22.352 80.4287 22.46 80.7407 22.532L81.8567 22.76C82.4007 22.88 82.8047 23.068 83.0687 23.324C83.3407 23.572 83.4767 23.908 83.4767 24.332C83.4767 24.692 83.3767 25.008 83.1767 25.28C82.9767 25.544 82.6967 25.748 82.3367 25.892C81.9847 26.036 81.5687 26.108 81.0887 26.108ZM87.1152 26.108C86.5233 26.108 86.0713 25.94 85.7593 25.604C85.4473 25.26 85.2913 24.744 85.2913 24.056V20.732H84.1153V19.976H85.2913V18.332L86.2633 18.056V19.976H87.9913V20.732H86.2633V23.948C86.2633 24.428 86.3433 24.772 86.5033 24.98C86.6713 25.18 86.9193 25.28 87.2473 25.28C87.3993 25.28 87.5353 25.268 87.6553 25.244C87.7753 25.212 87.8833 25.176 87.9793 25.136V25.952C87.8673 26 87.7313 26.036 87.5713 26.06C87.4193 26.092 87.2673 26.108 87.1152 26.108ZM91.4666 26.108C90.9306 26.108 90.4626 25.984 90.0626 25.736C89.6626 25.48 89.3506 25.12 89.1266 24.656C88.9106 24.192 88.8026 23.636 88.8026 22.988C88.8026 22.332 88.9106 21.772 89.1266 21.308C89.3506 20.844 89.6626 20.488 90.0626 20.24C90.4626 19.992 90.9306 19.868 91.4666 19.868C92.0106 19.868 92.4786 20.008 92.8706 20.288C93.2706 20.56 93.5346 20.932 93.6626 21.404H93.5186L93.6506 19.976H94.5866C94.5626 20.208 94.5386 20.444 94.5146 20.684C94.4986 20.916 94.4906 21.144 94.4906 21.368V26H93.5186V24.584H93.6506C93.5226 25.056 93.2586 25.428 92.8586 25.7C92.4586 25.972 91.9946 26.108 91.4666 26.108ZM91.6586 25.316C92.2346 25.316 92.6906 25.12 93.0266 24.728C93.3626 24.328 93.5306 23.748 93.5306 22.988C93.5306 22.22 93.3626 21.64 93.0266 21.248C92.6906 20.848 92.2346 20.648 91.6586 20.648C91.0906 20.648 90.6346 20.848 90.2906 21.248C89.9546 21.64 89.7866 22.22 89.7866 22.988C89.7866 23.748 89.9546 24.328 90.2906 24.728C90.6346 25.12 91.0906 25.316 91.6586 25.316ZM96.3699 26V17.168H97.3419V26H96.3699ZM99.2293 26V17.168H100.201V26H99.2293ZM105.53 26V20.732H104.354V19.976H105.794L105.53 20.228V19.22C105.53 18.54 105.702 18.02 106.046 17.66C106.39 17.3 106.882 17.12 107.522 17.12C107.682 17.12 107.846 17.136 108.014 17.168C108.19 17.192 108.334 17.228 108.446 17.276V18.08C108.35 18.04 108.23 18.008 108.086 17.984C107.95 17.952 107.81 17.936 107.666 17.936C107.418 17.936 107.206 17.988 107.03 18.092C106.854 18.188 106.722 18.336 106.634 18.536C106.546 18.736 106.502 18.992 106.502 19.304V20.18L106.346 19.976H108.182V20.732H106.502V26H105.53ZM109.248 26V21.428C109.248 21.188 109.24 20.944 109.224 20.696C109.216 20.448 109.2 20.208 109.176 19.976H110.112L110.232 21.44L110.064 21.452C110.144 21.092 110.284 20.796 110.484 20.564C110.684 20.332 110.92 20.16 111.192 20.048C111.464 19.928 111.748 19.868 112.044 19.868C112.164 19.868 112.268 19.872 112.356 19.88C112.452 19.888 112.54 19.908 112.62 19.94L112.608 20.804C112.488 20.764 112.376 20.74 112.272 20.732C112.176 20.716 112.064 20.708 111.936 20.708C111.584 20.708 111.276 20.792 111.012 20.96C110.756 21.128 110.56 21.344 110.424 21.608C110.296 21.872 110.232 22.152 110.232 22.448V26H109.248ZM116.033 26.108C115.457 26.108 114.953 25.984 114.521 25.736C114.097 25.48 113.769 25.12 113.537 24.656C113.305 24.184 113.189 23.628 113.189 22.988C113.189 22.34 113.305 21.784 113.537 21.32C113.769 20.856 114.097 20.5 114.521 20.252C114.953 19.996 115.457 19.868 116.033 19.868C116.617 19.868 117.121 19.996 117.545 20.252C117.977 20.5 118.309 20.856 118.541 21.32C118.781 21.784 118.901 22.34 118.901 22.988C118.901 23.628 118.781 24.184 118.541 24.656C118.309 25.12 117.977 25.48 117.545 25.736C117.121 25.984 116.617 26.108 116.033 26.108ZM116.033 25.316C116.609 25.316 117.065 25.12 117.401 24.728C117.737 24.328 117.905 23.748 117.905 22.988C117.905 22.22 117.733 21.64 117.389 21.248C117.053 20.848 116.601 20.648 116.033 20.648C115.465 20.648 115.013 20.848 114.677 21.248C114.341 21.64 114.173 22.22 114.173 22.988C114.173 23.748 114.341 24.328 114.677 24.728C115.013 25.12 115.465 25.316 116.033 25.316ZM120.417 26V21.368C120.417 21.144 120.405 20.916 120.381 20.684C120.365 20.444 120.345 20.208 120.321 19.976H121.257L121.377 21.296H121.233C121.393 20.84 121.645 20.488 121.989 20.24C122.341 19.992 122.765 19.868 123.261 19.868C123.765 19.868 124.173 19.988 124.485 20.228C124.805 20.468 125.021 20.84 125.133 21.344H124.953C125.105 20.888 125.373 20.528 125.757 20.264C126.141 20 126.589 19.868 127.101 19.868C127.765 19.868 128.265 20.06 128.601 20.444C128.937 20.82 129.105 21.416 129.105 22.232V26H128.133V22.292C128.133 21.724 128.033 21.312 127.833 21.056C127.633 20.792 127.313 20.66 126.873 20.66C126.369 20.66 125.969 20.836 125.673 21.188C125.385 21.532 125.241 21.996 125.241 22.58V26H124.269V22.292C124.269 21.724 124.169 21.312 123.969 21.056C123.769 20.792 123.449 20.66 123.009 20.66C122.505 20.66 122.109 20.836 121.821 21.188C121.533 21.532 121.389 21.996 121.389 22.58V26H120.417Z" fill="#FAFAFA"/>
<path d="M69.376 45V33.72H74.048C75.2533 33.72 76.176 34.008 76.816 34.584C77.456 35.16 77.776 35.9547 77.776 36.968C77.776 37.9813 77.456 38.7813 76.816 39.368C76.176 39.944 75.2533 40.232 74.048 40.232H70.864V45H69.376ZM70.864 39.016H73.904C74.6933 39.016 75.2907 38.84 75.696 38.488C76.1013 38.1253 76.304 37.6187 76.304 36.968C76.304 36.3173 76.1013 35.816 75.696 35.464C75.2907 35.112 74.6933 34.936 73.904 34.936H70.864V39.016ZM79.7004 45V33.224H81.1564V45H79.7004ZM86.663 45.144C85.959 45.144 85.3403 44.9787 84.807 44.648C84.2737 44.3173 83.8577 43.8373 83.559 43.208C83.2603 42.5787 83.111 41.832 83.111 40.968C83.111 40.104 83.2603 39.3627 83.559 38.744C83.8577 38.1147 84.2737 37.6347 84.807 37.304C85.3403 36.9733 85.959 36.808 86.663 36.808C87.3777 36.808 87.9963 36.9893 88.519 37.352C89.0523 37.704 89.4043 38.1893 89.575 38.808H89.383L89.559 36.952H90.967C90.935 37.272 90.903 37.592 90.871 37.912C90.8497 38.232 90.839 38.5467 90.839 38.856V45H89.383V43.16H89.559C89.3883 43.768 89.0363 44.2533 88.503 44.616C87.9803 44.968 87.367 45.144 86.663 45.144ZM86.999 43.992C87.7243 43.992 88.3057 43.736 88.743 43.224C89.1803 42.712 89.399 41.96 89.399 40.968C89.399 39.976 89.1803 39.2293 88.743 38.728C88.3057 38.2267 87.7243 37.976 86.999 37.976C86.2737 37.976 85.687 38.2267 85.239 38.728C84.8017 39.2293 84.583 39.976 84.583 40.968C84.583 41.96 84.8017 42.712 85.239 43.224C85.6763 43.736 86.263 43.992 86.999 43.992ZM92.9284 48.632L92.5924 47.448C93.0937 47.3307 93.5097 47.192 93.8404 47.032C94.171 46.8827 94.4484 46.6853 94.6724 46.44C94.8964 46.1947 95.0937 45.8853 95.2644 45.512L95.6644 44.552L95.6324 45.16L92.1284 36.952H93.6964L96.4964 43.848H96.0804L98.8804 36.952H100.384L96.6884 45.624C96.4644 46.1467 96.219 46.584 95.9524 46.936C95.6964 47.288 95.4137 47.576 95.1044 47.8C94.8057 48.024 94.475 48.2 94.1124 48.328C93.7497 48.456 93.355 48.5573 92.9284 48.632ZM108.686 45.144C108.035 45.144 107.427 45.0587 106.862 44.888C106.307 44.7173 105.849 44.472 105.486 44.152L105.95 43.144C106.345 43.4427 106.777 43.672 107.246 43.832C107.726 43.9813 108.217 44.056 108.718 44.056C109.326 44.056 109.785 43.944 110.094 43.72C110.414 43.496 110.574 43.1973 110.574 42.824C110.574 42.5253 110.473 42.2853 110.27 42.104C110.067 41.9227 109.747 41.7893 109.31 41.704L107.79 41.4C107.107 41.24 106.59 40.984 106.238 40.632C105.897 40.2693 105.726 39.8053 105.726 39.24C105.726 38.7707 105.854 38.3547 106.11 37.992C106.366 37.6187 106.729 37.3307 107.198 37.128C107.678 36.9147 108.238 36.808 108.878 36.808C109.465 36.808 110.009 36.8933 110.51 37.064C111.022 37.2347 111.443 37.4853 111.774 37.816L111.294 38.792C110.963 38.504 110.59 38.2853 110.174 38.136C109.769 37.976 109.353 37.896 108.926 37.896C108.307 37.896 107.849 38.0187 107.55 38.264C107.251 38.4987 107.102 38.808 107.102 39.192C107.102 39.48 107.193 39.72 107.374 39.912C107.555 40.0933 107.849 40.232 108.254 40.328L109.774 40.632C110.489 40.7813 111.027 41.0267 111.39 41.368C111.753 41.7093 111.934 42.1627 111.934 42.728C111.934 43.2293 111.795 43.6613 111.518 44.024C111.251 44.3867 110.873 44.664 110.382 44.856C109.902 45.048 109.337 45.144 108.686 45.144ZM116.849 45.144C116.006 45.144 115.366 44.9147 114.929 44.456C114.502 43.9867 114.289 43.2827 114.289 42.344V38.072H112.721V36.952H114.289V34.792L115.745 34.392V36.952H118.017V38.072H115.745V42.216C115.745 42.8347 115.852 43.2773 116.065 43.544C116.289 43.8 116.609 43.928 117.025 43.928C117.238 43.928 117.42 43.912 117.569 43.88C117.729 43.8373 117.873 43.7893 118.001 43.736V44.936C117.841 45 117.654 45.048 117.441 45.08C117.238 45.1227 117.041 45.144 116.849 45.144ZM122.858 45.144C122.069 45.144 121.386 44.9787 120.81 44.648C120.234 44.3067 119.786 43.8267 119.466 43.208C119.146 42.5787 118.986 41.832 118.986 40.968C118.986 40.1147 119.146 39.3787 119.466 38.76C119.786 38.1307 120.234 37.6507 120.81 37.32C121.386 36.9787 122.069 36.808 122.858 36.808C123.647 36.808 124.33 36.9787 124.906 37.32C125.493 37.6507 125.941 38.1307 126.25 38.76C126.57 39.3787 126.73 40.1147 126.73 40.968C126.73 41.832 126.57 42.5787 126.25 43.208C125.941 43.8267 125.493 44.3067 124.906 44.648C124.33 44.9787 123.647 45.144 122.858 45.144ZM122.858 43.992C123.583 43.992 124.165 43.736 124.602 43.224C125.039 42.712 125.258 41.96 125.258 40.968C125.258 39.976 125.039 39.2293 124.602 38.728C124.165 38.2267 123.583 37.976 122.858 37.976C122.122 37.976 121.535 38.2267 121.098 38.728C120.671 39.2293 120.458 39.976 120.458 40.968C120.458 41.96 120.671 42.712 121.098 43.224C121.535 43.736 122.122 43.992 122.858 43.992ZM128.669 45V38.92C128.669 38.6 128.658 38.2747 128.637 37.944C128.626 37.6027 128.599 37.272 128.557 36.952H129.965L130.141 38.968L129.901 38.984C130.007 38.4933 130.189 38.088 130.445 37.768C130.711 37.4373 131.026 37.1973 131.389 37.048C131.762 36.888 132.146 36.808 132.541 36.808C132.711 36.808 132.855 36.8133 132.973 36.824C133.09 36.8347 133.207 36.8613 133.325 36.904L133.293 38.2C133.133 38.136 132.983 38.0987 132.845 38.088C132.717 38.0667 132.557 38.056 132.365 38.056C131.895 38.056 131.49 38.1627 131.149 38.376C130.818 38.5893 130.562 38.872 130.381 39.224C130.21 39.576 130.125 39.9547 130.125 40.36V45H128.669ZM138.161 45.144C136.881 45.144 135.868 44.776 135.121 44.04C134.385 43.304 134.017 42.2907 134.017 41C134.017 40.1467 134.177 39.4107 134.497 38.792C134.828 38.1627 135.281 37.6773 135.857 37.336C136.433 36.984 137.105 36.808 137.873 36.808C138.609 36.808 139.233 36.968 139.745 37.288C140.257 37.5973 140.647 38.04 140.913 38.616C141.18 39.192 141.313 39.8747 141.313 40.664V41.144H135.153V40.28H140.321L140.049 40.488C140.049 39.656 139.863 39.0107 139.489 38.552C139.127 38.0933 138.588 37.864 137.873 37.864C137.095 37.864 136.492 38.136 136.065 38.68C135.639 39.2133 135.425 39.944 135.425 40.872V41.016C135.425 41.9973 135.665 42.7387 136.145 43.24C136.636 43.7413 137.313 43.992 138.177 43.992C138.657 43.992 139.105 43.9227 139.521 43.784C139.937 43.6453 140.337 43.416 140.721 43.096L141.201 44.104C140.839 44.4347 140.385 44.6907 139.841 44.872C139.308 45.0533 138.748 45.144 138.161 45.144Z" fill="white"/>
</g>
<defs>
<filter id="filter0_d_1055_3267" x="0" y="0" width="170" height="67" filterUnits="userSpaceOnUse" color-interpolation-filters="sRGB">
<feFlood flood-opacity="0" result="BackgroundImageFix"/>
<feColorMatrix in="SourceAlpha" type="matrix" values="0 0 0 0 0 0 0 0 0 0 0 0 0 0 0 0 0 0 127 0" result="hardAlpha"/>
<feOffset dy="2"/>
<feGaussianBlur stdDeviation="4"/>
<feComposite in2="hardAlpha" operator="out"/>
<feColorMatrix type="matrix" values="0 0 0 0 0 0 0 0 0 0 0 0 0 0 0 0 0 0 0.12 0"/>
<feBlend mode="normal" in2="BackgroundImageFix" result="effect1_dropShadow_1055_3267"/>
<feBlend mode="normal" in="SourceGraphic" in2="effect1_dropShadow_1055_3267" result="shape"/>
</filter>
<linearGradient id="paint0_linear_1055_3267" x1="30.666" y1="22.3734" x2="47.1093" y2="22.3734" gradientUnits="userSpaceOnUse">
<stop stop-color="#63BE6B"/>
<stop offset="0.506" stop-color="#5BBC6A"/>
<stop offset="1" stop-color="#4AB96A"/>
</linearGradient>
<linearGradient id="paint1_linear_1055_3267" x1="30.6777" y1="29.367" x2="41.9648" y2="29.367" gradientUnits="userSpaceOnUse">
<stop stop-color="#3EC6F2"/>
<stop offset="1" stop-color="#45AFE3"/>
</linearGradient>
<linearGradient id="paint2_linear_1055_3267" x1="41.9629" y1="29.7471" x2="56.3022" y2="29.7471" gradientUnits="userSpaceOnUse">
<stop stop-color="#FAA51A"/>
<stop offset="0.387" stop-color="#FAB716"/>
<stop offset="0.741" stop-color="#FAC412"/>
<stop offset="1" stop-color="#FAC80F"/>
</linearGradient>
<linearGradient id="paint3_linear_1055_3267" x1="30.7734" y1="37.0431" x2="47.7757" y2="37.0431" gradientUnits="userSpaceOnUse">
<stop stop-color="#EC3B50"/>
<stop offset="1" stop-color="#E7515B"/>
</linearGradient>
</defs>
</svg>
